STARTFONT 2.1
COMMENT Generated from X font `-schumacher-clean-medium-r-normal--6-60-75-75-c-40-iso646.1991-irv' by getbdf
FONT -schumacher-clean-medium-r-normal--6-60-75-75-c-40-iso646.1991-irv
SIZE 6 75 75
FONTBOUNDINGBOX 4 6 0 -1
STARTPROPERTIES 24
FONT_ASCENT 5
FONT_DESCENT 1
DEFAULT_CHAR 0
FONTNAME_REGISTRY ""
FOUNDRY "Schumacher"
FAMILY_NAME "Clean"
WEIGHT_NAME "Medium"
SLANT "R"
SETWIDTH_NAME "Normal"
ADD_STYLE_NAME ""
PIXEL_SIZE 6
POINT_SIZE 60
RESOLUTION_X 75
RESOLUTION_Y 75
SPACING "C"
AVERAGE_WIDTH 40
CHARSET_REGISTRY "ISO646.1991"
CHARSET_ENCODING "IRV"
COPYRIGHT "Copyright 1989 Dale Schumacher."
FONT "-Schumacher-Clean-Medium-R-Normal--6-60-75-75-C-40-ISO646.1991-IRV"
WEIGHT 10
RESOLUTION 103
X_HEIGHT 5
QUAD_WIDTH 4
ENDPROPERTIES
CHARS 128
STARTCHAR 0
ENCODING 0
SWIDTH 640 0
DWIDTH 4 0
BBX 4 6 0 -1
BITMAP
10
10
10
10
10
f0
ENDCHAR
STARTCHAR 1
ENCODING 1
SWIDTH 640 0
DWIDTH 4 0
BBX 0 0 0 0
BITMAP
ENDCHAR
STARTCHAR 2
ENCODING 2
SWIDTH 640 0
DWIDTH 4 0
BBX 0 0 0 0
BITMAP
ENDCHAR
STARTCHAR 3
ENCODING 3
SWIDTH 640 0
DWIDTH 4 0
BBX 0 0 0 0
BITMAP
ENDCHAR
STARTCHAR 4
ENCODING 4
SWIDTH 640 0
DWIDTH 4 0
BBX 0 0 0 0
BITMAP
ENDCHAR
STARTCHAR 5
ENCODING 5
SWIDTH 640 0
DWIDTH 4 0
BBX 0 0 0 0
BITMAP
ENDCHAR
STARTCHAR 6
ENCODING 6
SWIDTH 640 0
DWIDTH 4 0
BBX 0 0 0 0
BITMAP
ENDCHAR
STARTCHAR 7
ENCODING 7
SWIDTH 640 0
DWIDTH 4 0
BBX 0 0 0 0
BITMAP
ENDCHAR
STARTCHAR 8
ENCODING 8
SWIDTH 640 0
DWIDTH 4 0
BBX 0 0 0 0
BITMAP
ENDCHAR
STARTCHAR 9
ENCODING 9
SWIDTH 640 0
DWIDTH 4 0
BBX 0 0 0 0
BITMAP
ENDCHAR
STARTCHAR 10
ENCODING 10
SWIDTH 640 0
DWIDTH 4 0
BBX 0 0 0 0
BITMAP
ENDCHAR
STARTCHAR 11
ENCODING 11
SWIDTH 640 0
DWIDTH 4 0
BBX 0 0 0 0
BITMAP
ENDCHAR
STARTCHAR 12
ENCODING 12
SWIDTH 640 0
DWIDTH 4 0
BBX 0 0 0 0
BITMAP
ENDCHAR
STARTCHAR 13
ENCODING 13
SWIDTH 640 0
DWIDTH 4 0
BBX 0 0 0 0
BITMAP
ENDCHAR
STARTCHAR 14
ENCODING 14
SWIDTH 640 0
DWIDTH 4 0
BBX 0 0 0 0
BITMAP
ENDCHAR
STARTCHAR 15
ENCODING 15
SWIDTH 640 0
DWIDTH 4 0
BBX 0 0 0 0
BITMAP
ENDCHAR
STARTCHAR 16
ENCODING 16
SWIDTH 640 0
DWIDTH 4 0
BBX 0 0 0 0
BITMAP
ENDCHAR
STARTCHAR 17
ENCODING 17
SWIDTH 640 0
DWIDTH 4 0
BBX 0 0 0 0
BITMAP
ENDCHAR
STARTCHAR 18
ENCODING 18
SWIDTH 640 0
DWIDTH 4 0
BBX 0 0 0 0
BITMAP
ENDCHAR
STARTCHAR 19
ENCODING 19
SWIDTH 640 0
DWIDTH 4 0
BBX 0 0 0 0
BITMAP
ENDCHAR
STARTCHAR 20
ENCODING 20
SWIDTH 640 0
DWIDTH 4 0
BBX 0 0 0 0
BITMAP
ENDCHAR
STARTCHAR 21
ENCODING 21
SWIDTH 640 0
DWIDTH 4 0
BBX 0 0 0 0
BITMAP
ENDCHAR
STARTCHAR 22
ENCODING 22
SWIDTH 640 0
DWIDTH 4 0
BBX 0 0 0 0
BITMAP
ENDCHAR
STARTCHAR 23
ENCODING 23
SWIDTH 640 0
DWIDTH 4 0
BBX 0 0 0 0
BITMAP
ENDCHAR
STARTCHAR 24
ENCODING 24
SWIDTH 640 0
DWIDTH 4 0
BBX 0 0 0 0
BITMAP
ENDCHAR
STARTCHAR 25
ENCODING 25
SWIDTH 640 0
DWIDTH 4 0
BBX 0 0 0 0
BITMAP
ENDCHAR
STARTCHAR 26
ENCODING 26
SWIDTH 640 0
DWIDTH 4 0
BBX 0 0 0 0
BITMAP
ENDCHAR
STARTCHAR 27
ENCODING 27
SWIDTH 640 0
DWIDTH 4 0
BBX 0 0 0 0
BITMAP
ENDCHAR
STARTCHAR 28
ENCODING 28
SWIDTH 640 0
DWIDTH 4 0
BBX 0 0 0 0
BITMAP
ENDCHAR
STARTCHAR 29
ENCODING 29
SWIDTH 640 0
DWIDTH 4 0
BBX 0 0 0 0
BITMAP
ENDCHAR
STARTCHAR 30
ENCODING 30
SWIDTH 640 0
DWIDTH 4 0
BBX 0 0 0 0
BITMAP
ENDCHAR
STARTCHAR 31
ENCODING 31
SWIDTH 640 0
DWIDTH 4 0
BBX 0 0 0 0
BITMAP
ENDCHAR
STARTCHAR 32
ENCODING 32
SWIDTH 640 0
DWIDTH 4 0
BBX 0 0 0 0
BITMAP
ENDCHAR
STARTCHAR 33
ENCODING 33
SWIDTH 640 0
DWIDTH 4 0
BBX 1 5 1 0
BITMAP
80
80
80
00
80
ENDCHAR
STARTCHAR 34
ENCODING 34
SWIDTH 640 0
DWIDTH 4 0
BBX 3 2 0 3
BITMAP
a0
a0
ENDCHAR
STARTCHAR 35
ENCODING 35
SWIDTH 640 0
DWIDTH 4 0
BBX 3 5 0 0
BITMAP
a0
e0
a0
e0
a0
ENDCHAR
STARTCHAR 36
ENCODING 36
SWIDTH 640 0
DWIDTH 4 0
BBX 3 5 0 0
BITMAP
e0
c0
e0
60
e0
ENDCHAR
STARTCHAR 37
ENCODING 37
SWIDTH 640 0
DWIDTH 4 0
BBX 3 5 0 0
BITMAP
a0
20
40
80
a0
ENDCHAR
STARTCHAR 38
ENCODING 38
SWIDTH 640 0
DWIDTH 4 0
BBX 3 5 0 0
BITMAP
e0
40
e0
a0
e0
ENDCHAR
STARTCHAR 39
ENCODING 39
SWIDTH 640 0
DWIDTH 4 0
BBX 2 2 1 3
BITMAP
40
80
ENDCHAR
STARTCHAR 40
ENCODING 40
SWIDTH 640 0
DWIDTH 4 0
BBX 2 5 1 0
BITMAP
40
80
80
80
40
ENDCHAR
STARTCHAR 41
ENCODING 41
SWIDTH 640 0
DWIDTH 4 0
BBX 2 5 1 0
BITMAP
80
40
40
40
80
ENDCHAR
STARTCHAR 42
ENCODING 42
SWIDTH 640 0
DWIDTH 4 0
BBX 3 5 0 0
BITMAP
40
40
e0
40
a0
ENDCHAR
STARTCHAR 43
ENCODING 43
SWIDTH 640 0
DWIDTH 4 0
BBX 3 3 0 1
BITMAP
40
e0
40
ENDCHAR
STARTCHAR 44
ENCODING 44
SWIDTH 640 0
DWIDTH 4 0
BBX 2 2 1 0
BITMAP
40
80
ENDCHAR
STARTCHAR 45
ENCODING 45
SWIDTH 640 0
DWIDTH 4 0
BBX 3 1 0 2
BITMAP
e0
ENDCHAR
STARTCHAR 46
ENCODING 46
SWIDTH 640 0
DWIDTH 4 0
BBX 1 1 1 0
BITMAP
80
ENDCHAR
STARTCHAR 47
ENCODING 47
SWIDTH 640 0
DWIDTH 4 0
BBX 3 5 0 0
BITMAP
20
20
40
80
80
ENDCHAR
STARTCHAR 48
ENCODING 48
SWIDTH 640 0
DWIDTH 4 0
BBX 3 5 0 0
BITMAP
e0
a0
a0
a0
e0
ENDCHAR
STARTCHAR 49
ENCODING 49
SWIDTH 640 0
DWIDTH 4 0
BBX 2 5 0 0
BITMAP
40
c0
40
40
40
ENDCHAR
STARTCHAR 50
ENCODING 50
SWIDTH 640 0
DWIDTH 4 0
BBX 3 5 0 0
BITMAP
e0
20
e0
80
e0
ENDCHAR
STARTCHAR 51
ENCODING 51
SWIDTH 640 0
DWIDTH 4 0
BBX 3 5 0 0
BITMAP
e0
20
e0
20
e0
ENDCHAR
STARTCHAR 52
ENCODING 52
SWIDTH 640 0
DWIDTH 4 0
BBX 3 5 0 0
BITMAP
a0
a0
e0
20
20
ENDCHAR
STARTCHAR 53
ENCODING 53
SWIDTH 640 0
DWIDTH 4 0
BBX 3 5 0 0
BITMAP
e0
80
e0
20
e0
ENDCHAR
STARTCHAR 54
ENCODING 54
SWIDTH 640 0
DWIDTH 4 0
BBX 3 5 0 0
BITMAP
e0
80
e0
a0
e0
ENDCHAR
STARTCHAR 55
ENCODING 55
SWIDTH 640 0
DWIDTH 4 0
BBX 3 5 0 0
BITMAP
e0
20
20
20
20
ENDCHAR
STARTCHAR 56
ENCODING 56
SWIDTH 640 0
DWIDTH 4 0
BBX 3 5 0 0
BITMAP
e0
a0
e0
a0
e0
ENDCHAR
STARTCHAR 57
ENCODING 57
SWIDTH 640 0
DWIDTH 4 0
BBX 3 5 0 0
BITMAP
e0
a0
e0
20
e0
ENDCHAR
STARTCHAR 58
ENCODING 58
SWIDTH 640 0
DWIDTH 4 0
BBX 1 3 1 1
BITMAP
80
00
80
ENDCHAR
STARTCHAR 59
ENCODING 59
SWIDTH 640 0
DWIDTH 4 0
BBX 2 4 1 0
BITMAP
40
00
40
80
ENDCHAR
STARTCHAR 60
ENCODING 60
SWIDTH 640 0
DWIDTH 4 0
BBX 3 5 0 0
BITMAP
20
40
80
40
20
ENDCHAR
STARTCHAR 61
ENCODING 61
SWIDTH 640 0
DWIDTH 4 0
BBX 3 3 0 1
BITMAP
e0
00
e0
ENDCHAR
STARTCHAR 62
ENCODING 62
SWIDTH 640 0
DWIDTH 4 0
BBX 3 5 0 0
BITMAP
80
40
20
40
80
ENDCHAR
STARTCHAR 63
ENCODING 63
SWIDTH 640 0
DWIDTH 4 0
BBX 3 5 0 0
BITMAP
c0
20
40
00
40
ENDCHAR
STARTCHAR 64
ENCODING 64
SWIDTH 640 0
DWIDTH 4 0
BBX 3 5 0 0
BITMAP
e0
a0
e0
80
e0
ENDCHAR
STARTCHAR 65
ENCODING 65
SWIDTH 640 0
DWIDTH 4 0
BBX 3 5 0 0
BITMAP
40
a0
e0
a0
a0
ENDCHAR
STARTCHAR 66
ENCODING 66
SWIDTH 640 0
DWIDTH 4 0
BBX 3 5 0 0
BITMAP
c0
a0
c0
a0
c0
ENDCHAR
STARTCHAR 67
ENCODING 67
SWIDTH 640 0
DWIDTH 4 0
BBX 3 5 0 0
BITMAP
60
80
80
80
60
ENDCHAR
STARTCHAR 68
ENCODING 68
SWIDTH 640 0
DWIDTH 4 0
BBX 3 5 0 0
BITMAP
c0
a0
a0
a0
c0
ENDCHAR
STARTCHAR 69
ENCODING 69
SWIDTH 640 0
DWIDTH 4 0
BBX 3 5 0 0
BITMAP
e0
80
c0
80
e0
ENDCHAR
STARTCHAR 70
ENCODING 70
SWIDTH 640 0
DWIDTH 4 0
BBX 3 5 0 0
BITMAP
e0
80
c0
80
80
ENDCHAR
STARTCHAR 71
ENCODING 71
SWIDTH 640 0
DWIDTH 4 0
BBX 3 5 0 0
BITMAP
60
80
a0
a0
60
ENDCHAR
STARTCHAR 72
ENCODING 72
SWIDTH 640 0
DWIDTH 4 0
BBX 3 5 0 0
BITMAP
a0
a0
e0
a0
a0
ENDCHAR
STARTCHAR 73
ENCODING 73
SWIDTH 640 0
DWIDTH 4 0
BBX 3 5 0 0
BITMAP
e0
40
40
40
e0
ENDCHAR
STARTCHAR 74
ENCODING 74
SWIDTH 640 0
DWIDTH 4 0
BBX 3 5 0 0
BITMAP
20
20
20
a0
40
ENDCHAR
STARTCHAR 75
ENCODING 75
SWIDTH 640 0
DWIDTH 4 0
BBX 3 5 0 0
BITMAP
a0
a0
c0
a0
a0
ENDCHAR
STARTCHAR 76
ENCODING 76
SWIDTH 640 0
DWIDTH 4 0
BBX 3 5 0 0
BITMAP
80
80
80
80
e0
ENDCHAR
STARTCHAR 77
ENCODING 77
SWIDTH 640 0
DWIDTH 4 0
BBX 3 5 0 0
BITMAP
a0
e0
e0
a0
a0
ENDCHAR
STARTCHAR 78
ENCODING 78
SWIDTH 640 0
DWIDTH 4 0
BBX 3 5 0 0
BITMAP
a0
e0
e0
e0
a0
ENDCHAR
STARTCHAR 79
ENCODING 79
SWIDTH 640 0
DWIDTH 4 0
BBX 3 5 0 0
BITMAP
40
a0
a0
a0
40
ENDCHAR
STARTCHAR 80
ENCODING 80
SWIDTH 640 0
DWIDTH 4 0
BBX 3 5 0 0
BITMAP
c0
a0
c0
80
80
ENDCHAR
STARTCHAR 81
ENCODING 81
SWIDTH 640 0
DWIDTH 4 0
BBX 3 5 0 0
BITMAP
40
a0
a0
c0
60
ENDCHAR
STARTCHAR 82
ENCODING 82
SWIDTH 640 0
DWIDTH 4 0
BBX 3 5 0 0
BITMAP
c0
a0
c0
a0
a0
ENDCHAR
STARTCHAR 83
ENCODING 83
SWIDTH 640 0
DWIDTH 4 0
BBX 3 5 0 0
BITMAP
60
80
40
20
c0
ENDCHAR
STARTCHAR 84
ENCODING 84
SWIDTH 640 0
DWIDTH 4 0
BBX 3 5 0 0
BITMAP
e0
40
40
40
40
ENDCHAR
STARTCHAR 85
ENCODING 85
SWIDTH 640 0
DWIDTH 4 0
BBX 3 5 0 0
BITMAP
a0
a0
a0
a0
e0
ENDCHAR
STARTCHAR 86
ENCODING 86
SWIDTH 640 0
DWIDTH 4 0
BBX 3 5 0 0
BITMAP
a0
a0
a0
a0
40
ENDCHAR
STARTCHAR 87
ENCODING 87
SWIDTH 640 0
DWIDTH 4 0
BBX 3 5 0 0
BITMAP
a0
a0
e0
e0
a0
ENDCHAR
STARTCHAR 88
ENCODING 88
SWIDTH 640 0
DWIDTH 4 0
BBX 3 5 0 0
BITMAP
a0
a0
40
a0
a0
ENDCHAR
STARTCHAR 89
ENCODING 89
SWIDTH 640 0
DWIDTH 4 0
BBX 3 5 0 0
BITMAP
a0
a0
40
40
40
ENDCHAR
STARTCHAR 90
ENCODING 90
SWIDTH 640 0
DWIDTH 4 0
BBX 3 5 0 0
BITMAP
e0
20
40
80
e0
ENDCHAR
STARTCHAR 91
ENCODING 91
SWIDTH 640 0
DWIDTH 4 0
BBX 2 5 1 0
BITMAP
c0
80
80
80
c0
ENDCHAR
STARTCHAR 92
ENCODING 92
SWIDTH 640 0
DWIDTH 4 0
BBX 3 5 0 0
BITMAP
80
80
40
20
20
ENDCHAR
STARTCHAR 93
ENCODING 93
SWIDTH 640 0
DWIDTH 4 0
BBX 2 5 1 0
BITMAP
c0
40
40
40
c0
ENDCHAR
STARTCHAR 94
ENCODING 94
SWIDTH 640 0
DWIDTH 4 0
BBX 3 2 0 3
BITMAP
40
a0
ENDCHAR
STARTCHAR 95
ENCODING 95
SWIDTH 640 0
DWIDTH 4 0
BBX 3 1 0 0
BITMAP
e0
ENDCHAR
STARTCHAR 96
ENCODING 96
SWIDTH 640 0
DWIDTH 4 0
BBX 2 2 1 3
BITMAP
80
40
ENDCHAR
STARTCHAR 97
ENCODING 97
SWIDTH 640 0
DWIDTH 4 0
BBX 3 4 0 0
BITMAP
40
a0
a0
60
ENDCHAR
STARTCHAR 98
ENCODING 98
SWIDTH 640 0
DWIDTH 4 0
BBX 3 5 0 0
BITMAP
80
c0
a0
a0
c0
ENDCHAR
STARTCHAR 99
ENCODING 99
SWIDTH 640 0
DWIDTH 4 0
BBX 3 4 0 0
BITMAP
60
80
80
60
ENDCHAR
STARTCHAR 100
ENCODING 100
SWIDTH 640 0
DWIDTH 4 0
BBX 3 5 0 0
BITMAP
20
60
a0
a0
60
ENDCHAR
STARTCHAR 101
ENCODING 101
SWIDTH 640 0
DWIDTH 4 0
BBX 3 4 0 0
BITMAP
60
e0
80
60
ENDCHAR
STARTCHAR 102
ENCODING 102
SWIDTH 640 0
DWIDTH 4 0
BBX 3 5 0 0
BITMAP
20
40
e0
40
40
ENDCHAR
STARTCHAR 103
ENCODING 103
SWIDTH 640 0
DWIDTH 4 0
BBX 3 5 0 -1
BITMAP
60
a0
60
20
c0
ENDCHAR
STARTCHAR 104
ENCODING 104
SWIDTH 640 0
DWIDTH 4 0
BBX 3 5 0 0
BITMAP
80
c0
a0
a0
a0
ENDCHAR
STARTCHAR 105
ENCODING 105
SWIDTH 640 0
DWIDTH 4 0
BBX 1 5 1 0
BITMAP
80
00
80
80
80
ENDCHAR
STARTCHAR 106
ENCODING 106
SWIDTH 640 0
DWIDTH 4 0
BBX 3 6 0 -1
BITMAP
20
00
20
20
a0
40
ENDCHAR
STARTCHAR 107
ENCODING 107
SWIDTH 640 0
DWIDTH 4 0
BBX 3 5 0 0
BITMAP
80
a0
c0
c0
a0
ENDCHAR
STARTCHAR 108
ENCODING 108
SWIDTH 640 0
DWIDTH 4 0
BBX 1 5 1 0
BITMAP
80
80
80
80
80
ENDCHAR
STARTCHAR 109
ENCODING 109
SWIDTH 640 0
DWIDTH 4 0
BBX 3 4 0 0
BITMAP
e0
e0
e0
a0
ENDCHAR
STARTCHAR 110
ENCODING 110
SWIDTH 640 0
DWIDTH 4 0
BBX 3 4 0 0
BITMAP
c0
a0
a0
a0
ENDCHAR
STARTCHAR 111
ENCODING 111
SWIDTH 640 0
DWIDTH 4 0
BBX 3 4 0 0
BITMAP
40
a0
a0
40
ENDCHAR
STARTCHAR 112
ENCODING 112
SWIDTH 640 0
DWIDTH 4 0
BBX 3 5 0 -1
BITMAP
c0
a0
c0
80
80
ENDCHAR
STARTCHAR 113
ENCODING 113
SWIDTH 640 0
DWIDTH 4 0
BBX 3 5 0 -1
BITMAP
60
a0
60
20
20
ENDCHAR
STARTCHAR 114
ENCODING 114
SWIDTH 640 0
DWIDTH 4 0
BBX 3 4 0 0
BITMAP
c0
a0
80
80
ENDCHAR
STARTCHAR 115
ENCODING 115
SWIDTH 640 0
DWIDTH 4 0
BBX 3 4 0 0
BITMAP
60
c0
60
c0
ENDCHAR
STARTCHAR 116
ENCODING 116
SWIDTH 640 0
DWIDTH 4 0
BBX 3 5 0 0
BITMAP
40
e0
40
40
40
ENDCHAR
STARTCHAR 117
ENCODING 117
SWIDTH 640 0
DWIDTH 4 0
BBX 3 4 0 0
BITMAP
a0
a0
a0
e0
ENDCHAR
STARTCHAR 118
ENCODING 118
SWIDTH 640 0
DWIDTH 4 0
BBX 3 4 0 0
BITMAP
a0
a0
a0
40
ENDCHAR
STARTCHAR 119
ENCODING 119
SWIDTH 640 0
DWIDTH 4 0
BBX 3 4 0 0
BITMAP
a0
e0
e0
e0
ENDCHAR
STARTCHAR 120
ENCODING 120
SWIDTH 640 0
DWIDTH 4 0
BBX 3 4 0 0
BITMAP
a0
40
40
a0
ENDCHAR
STARTCHAR 121
ENCODING 121
SWIDTH 640 0
DWIDTH 4 0
BBX 3 5 0 -1
BITMAP
a0
a0
60
20
c0
ENDCHAR
STARTCHAR 122
ENCODING 122
SWIDTH 640 0
DWIDTH 4 0
BBX 3 4 0 0
BITMAP
e0
60
c0
e0
ENDCHAR
STARTCHAR 123
ENCODING 123
SWIDTH 640 0
DWIDTH 4 0
BBX 3 5 0 0
BITMAP
60
40
c0
40
60
ENDCHAR
STARTCHAR 124
ENCODING 124
SWIDTH 640 0
DWIDTH 4 0
BBX 1 5 1 0
BITMAP
80
80
00
80
80
ENDCHAR
STARTCHAR 125
ENCODING 125
SWIDTH 640 0
DWIDTH 4 0
BBX 3 5 0 0
BITMAP
c0
40
60
40
c0
ENDCHAR
STARTCHAR 126
ENCODING 126
SWIDTH 640 0
DWIDTH 4 0
BBX 3 3 0 2
BITMAP
20
e0
80
ENDCHAR
STARTCHAR 127
ENCODING 127
SWIDTH 640 0
DWIDTH 4 0
BBX 3 5 0 0
BITMAP
40
40
a0
a0
e0
ENDCHAR
ENDFONT
